DBRep_DrawableShape

CASCADE Topology V3, (c) Open Cascade
Locations 0
Curve2ds 42
1 0 0 1 0 
1 0 0 1 0 
1 20 0 0 -1 
1 0 0 0 1 
1 0 -24 1 0 
1 0 0 1 0 
1 0 0 0 -1 
1 0 0 0 1 
1 0 0 0 1 
1 0 0 1 0 
1 0 0 1 0 
1 0 24 1 0 
1 20 0 0 1 
1 0 0 1 0 
1 20 0 0 1 
1 0 24 1 0 
1 20 0 0 -1 
1 24 0 0 1 
2 12 12 1 0 -0 1 3.5
1 0 4 1 0 
1 0 0 0 1 
1 0 24 1 0 
1 0 -24 1 0 
1 0 24 1 0 
1 0 0 0 -1 
1 24 0 0 1 
2 12 12 1 0 -0 1 3
1 0 1 1 0 
1 6.2831853071795862 -0 0 1 
1 0 -0 0 1 
1 0 0 1 0 
2 0 0 1 0 -0 1 3.5
1 0 0 1 0 
2 0 0 1 0 -0 1 3
1 0 16.699999999999999 1 0 
1 6.2831853071795862 -0 0 1 
1 0 -0 0 1 
1 0 0.4242640687119284 1 0 
2 0 0 1 0 -0 1 3.2999999999999998
2 0 0 1 0 -0 1 3.2999999999999998
1 6.2831853071795862 -0 0 1 
1 0 -0 0 1 
Curves 20
1 -12 -12 0 0 0 1 
1 -12 -12 20 -0 1 0 
1 -12 12 0 0 0 1 
1 -12 -12 0 -0 1 0 
1 -12 -12 0 1 0 -0 
1 12 -12 0 0 0 1 
1 -12 -12 20 1 0 -0 
1 -12 12 20 1 0 -0 
1 12 -12 20 -0 1 0 
2 0 0 20 0 0 1 1 0 -0 -0 1 0 3.5
1 -12 12 0 1 0 -0 
1 12 12 0 0 0 1 
1 12 -12 0 -0 1 0 
2 0 0 0 0 0 1 1 0 -0 -0 1 0 3
1 3.5 -8.5725275940314722e-16 16 0 0 1 
2 0 0 16 0 0 1 1 0 -0 -0 1 0 3.5
2 0 0 15.699999999999999 0 0 1 1 0 -0 -0 1 0 3
1 3 -7.3478807948841188e-16 -1 0 0 1 
2 0 0 16 0 0 1 1 0 -0 -0 1 0 3.2999999999999998
1 3 -7.3478807948841188e-16 15.699999999999999 0.70710678118654735 -1.7319121124709861e-16 0.70710678118654768 
Polygon3D 0
PolygonOnTriangulations 0
Surfaces 12
1 -12 -12 0 1 0 -0 0 0 1 0 -1 0 
1 -12 -12 0 -0 1 0 0 0 1 1 0 -0 
1 -12 -12 20 0 0 1 1 0 -0 -0 1 0 
1 -12 12 0 -0 1 0 0 0 1 1 0 -0 
1 -12 -12 0 0 0 1 1 0 -0 -0 1 0 
1 12 -12 0 1 0 -0 0 0 1 0 -1 0 
2 0 0 16 0 0 1 1 0 -0 -0 1 0 3.5
2 0 0 -1 0 0 1 1 0 -0 -0 1 0 3
1 0 0 16 0 0 1 1 0 -0 -0 1 0 
3 0 0 15.699999999999999 0 0 1 1 0 -0 -0 1 0 3
0.78539816339744806
1 0 0 15.699999999999999 0 0 1 1 0 -0 -0 1 0 
1 0 0 16 0 0 1 1 0 -0 -0 1 0 
Triangulations 0

TShapes 59
Ve
1e-07
-12 -12 20
0 0

0101101
*
Ve
1e-07
-12 -12 0
0 0

0101101
*
Ed
 1e-07 1 1 0
1  1 0 0 20
2  1 1 0 0 20
2  2 2 0 0 20
0

0101000
-59 0 +58 0 *
Ve
1e-07
-12 12 20
0 0

0101101
*
Ed
 1e-07 1 1 0
1  2 0 0 24
2  3 1 0 0 24
2  4 3 0 0 24
0

0101000
-56 0 +59 0 *
Ve
1e-07
-12 12 0
0 0

0101101
*
Ed
 1e-07 1 1 0
1  3 0 0 20
2  5 1 0 0 20
2  6 4 0 0 20
0

0101000
-56 0 +54 0 *
Ed
 1e-07 1 1 0
1  4 0 0 24
2  7 1 0 0 24
2  8 5 0 0 24
0

0101000
-54 0 +58 0 *
Wi

0101100
-57 0 -55 0 +53 0 +52 0 *
Fa
0  1e-07 1 0

0111000
+51 0 *
Ve
1e-07
12 -12 0
0 0

0101101
*
Ed
 1e-07 1 1 0
1  5 0 0 24
2  9 2 0 0 24
2  10 5 0 0 24
0

0101000
-49 0 +58 0 *
Ve
1e-07
12 -12 20
0 0

0101101
*
Ed
 1e-07 1 1 0
1  6 0 0 20
2  11 6 0 0 20
2  12 2 0 0 20
0

0101000
-47 0 +49 0 *
Ed
 1e-07 1 1 0
1  7 0 0 24
2  13 2 0 0 24
2  14 3 0 0 24
0

0101000
-47 0 +59 0 *
Wi

0101100
-48 0 -46 0 +45 0 +57 0 *
Fa
0  1e-07 2 0

0111000
+44 0 *
Ve
1e-07
12 12 20
0 0

0101101
*
Ed
 1e-07 1 1 0
1  8 0 0 24
2  15 4 0 0 24
2  16 3 0 0 24
0

0101000
-42 0 +56 0 *
Ed
 1e-07 1 1 0
1  9 0 0 24
2  17 6 0 0 24
2  18 3 0 0 24
0

0101000
-42 0 +47 0 *
Wi

0101100
-55 0 -41 0 +45 0 +40 0 *
Ve
1.00000000857253e-07
3.5 -8.57252759403147e-16 20
0 0

0101101
*
Ed
 1e-07 1 1 0
1  10 0 0 6.28318530717959
2  19 3 0 0 6.28318530717959
2  20 7 0 0 6.28318530717959
0

0101100
+38 0 -38 0 *
Wi

0101100
-37 0 *
Fa
0  1e-07 3 0

0101000
+39 0 +36 0 *
Ve
1e-07
12 12 0
0 0

0101101
*
Ed
 1e-07 1 1 0
1  11 0 0 24
2  21 4 0 0 24
2  22 5 0 0 24
0

0101000
-34 0 +54 0 *
Ed
 1e-07 1 1 0
1  12 0 0 20
2  23 6 0 0 20
2  24 4 0 0 20
0

0101000
-42 0 +34 0 *
Wi

0101100
-33 0 -32 0 +41 0 +53 0 *
Fa
0  1e-07 4 0

0111000
+31 0 *
Ed
 1e-07 1 1 0
1  13 0 0 24
2  25 6 0 0 24
2  26 5 0 0 24
0

0101000
-34 0 +49 0 *
Wi

0101100
-52 0 -33 0 +48 0 +29 0 *
Ve
1.00000000734788e-07
3 -7.34788079488412e-16 0
0 0

0101101
*
Ed
 1e-07 1 1 0
1  14 0 0 6.28318530717959
2  27 5 0 0 6.28318530717959
2  28 8 0 0 6.28318530717959
0

0101100
+27 0 -27 0 *
Wi

0101100
-26 0 *
Fa
0  1e-07 5 0

0101000
+28 0 +25 0 *
Wi

0101100
-46 0 -40 0 +32 0 +29 0 *
Fa
0  1e-07 6 0

0111000
+23 0 *
Ve
1e-07
3.5 -8.57252759403147e-16 16
0 0

0101101
*
Ed
 1e-07 1 1 0
1  15 0 0 4
3  29 30CN 7 0 0 4
0

0101000
+21 0 -38 0 *
Ed
 1e-07 1 1 0
1  16 0 0 6.28318530717959
2  31 7 0 0 6.28318530717959
2  32 9 0 0 6.28318530717959
0

0101000
+21 0 -21 0 *
Wi

0101100
-37 0 +20 0 +19 0 -20 0 *
Fa
0  1e-07 7 0

0101000
+18 0 *
Ve
1.00000002589463e-07
3 -7.34788079488412e-16 15.7
0 0

0101101
*
Ed
 1.00000002589463e-07 1 1 0
1  17 0 0 6.28318530717959
2  33 10 0 0 6.28318530717959
2  34 11 0 0 6.28318530717959
2  35 8 0 0 6.28318530717959
0

0101000
+16 0 -16 0 *
Ed
 1e-07 1 1 0
1  18 0 1 16.7
3  36 37CN 8 0 1 16.7
0

0101000
+27 0 -16 0 *
Wi

0101100
-15 0 +14 0 +26 0 -14 0 *
Fa
0  1e-07 8 0

0101000
+13 0 *
Wi

0101100
+19 0 *
Ve
1e-07
3.3 -8.08266887437253e-16 16
0 0

0101101
*
Ed
 1e-07 1 1 0
1  19 0 0 6.28318530717959
2  38 10 0 0 6.28318530717959
2  39 12 0 0 6.28318530717959
2  40 9 0 0 6.28318530717959
0

0101000
+10 0 -10 0 *
Wi

0101100
-9 0 *
Fa
0  1e-07 9 0

0101000
+11 0 +8 0 *
Ed
 1e-07 1 1 0
1  20 0 0 0.424264068711928
3  41 42CN 10 0 0 0.424264068711928
0

0101000
-10 0 +16 0 *
Wi

0101100
-9 0 +6 0 +15 0 -6 0 *
Fa
0  1e-07 10 0

0111000
+5 0 *
Sh

0101100
-50 0 -43 0 +35 0 +30 0 -24 0 +22 0 -17 0 -12 0 +7 0 -4 0 
*
So

0100000
+3 0 *
Co

1100000
+2 0 *

+1 0 