DBRep_DrawableShape

CASCADE Topology V3, (c) Open Cascade
Locations 6
1
              1 1.01523055504476e-30 7.88860905221012e-31 -5.16627314567901 
-1.01523055504476e-30               1 2.46519032881566e-32 -20.37591843142 
-7.88860905221012e-31 -2.46519032881566e-32               1  39.82502500034 
1
              1 1.01523055504476e-30 7.88860905221012e-31 -4.44089209850063e-16 
-1.01523055504476e-30               1 2.46519032881566e-32               0 
-7.88860905221012e-31 -2.46519032881566e-32               1               0 
1
              1 1.01523055504476e-30 7.88860905221012e-31 -4.44089209850063e-16 
-1.01523055504476e-30               1 2.46519032881566e-32               0 
-7.88860905221012e-31 -2.46519032881566e-32               1               0 
1
              1 1.01523055504476e-30 7.88860905221012e-31 -2.2354703914651e-05 
-1.01523055504476e-30               1 2.46519032881566e-32 -1.4281908988778e-11 
-7.88860905221012e-31 -2.46519032881566e-32               1 1.77635683940025e-14 
1
             -1 5.49560397189452e-15 6.60506055373544e-15 29.0552857568237 
5.49560397189452e-15               1 -2.04569717210349e-16            25.8 
-6.60506055373544e-15 -2.04569717210313e-16              -1 54.1216971407633 
2  1 1 2 1 3 1 4 1 5 1 0
Curve2ds 20
1 -6.2831853071795862 0 1 0 
1 -3.1415926535897931 0.21213203435596473 1 0 
1 6.2831853071795862 4 -1 0 
1 -3.1415926535897931 0 0 -1 
1 3.1415926535897931 0 0 -1 
1 3.1415926535897931 0.21213203435596428 1 0 
1 4.7123889806826416 -0.21213203435596412 1 0 
1 2.9795188538628281e-10 -0.29999999999999982 1 0 
1 9.4247779607693793 2.7755575615628914e-17 0 1 
1 3.1415926535897931 2.7755575615628914e-17 0 1 
1 -1.5707963264969447 -0.21213203435596412 1 0 
1 2.9795188538628281e-10 -0.29999999999999982 1 0 
1 9.4247779607693793 0 0 1 
1 3.1415926535897931 0 0 1 
1 4.7123889803846897 -3.6999999999998998 -1 0 
1 -3.1415926535897931 -0.2121320343559642 1 0 
1 10.995574287564276 -3.6999999999998998 -1 0 
1 -3.1415926535897931 -0.2121320343559642 1 0 
1 3.1415926535897931 5.5511151231257827e-17 0 1 
1 -3.1415926535897931 5.5511151231257827e-17 0 1 
Curves 12
2 0 0 0 0 1 0 -1 0 0 0 -0 1 2
2 0 9.947598300641e-14 0 0 -1 0 0 0 -1 1 0 0 1.6000000000000001
2 0 4 0 0 -1 0 -1 0 0 -0 -0 -1 2
1 2 0 -2.4492935982947099e-16 0 -1 0 
2 0 4 0 0 1 0 0 0 -1 -1 0 0 1.6000000000000001
2 0 3.7000000000000002 0 0 1 0 -1 0 2.9795220701080001e-10 2.9795220701080001e-10 -0 1 1.3
1 -1.7757378587636599e-16 3.8500000000000001 -1.45 -8.6595605623549242e-17 0.70710678118654757 -0.70710678118654757 
2 0 3.7000000000000002 0 0 1 0 -1 0 2.9795220701080001e-10 2.9795220701080001e-10 -0 1 1.3
1 1.3 4 -1.5920408388915601e-16 0 1 0 
2 0 0.30000000000010002 0 0 -1 0 0 0 -1 1 0 0 1.3
2 0 0.30000000000010002 0 0 -1 0 0 0 -1 1 0 0 1.3
1 1.7757378587636599e-16 0.1500000000001 -1.45 8.6595605623549242e-17 -0.70710678118654757 -0.70710678118654757 
Polygon3D 0
PolygonOnTriangulations 0
Surfaces 6
1 0 0 0 0 1 0 -1 0 0 0 -0 1 
2 0 0 0 0 1 0 -1 0 0 0 -0 1 2
3 0 0.1500000000001 0 0 -1 0 0 0 1 -1 0 0 1.45
0.78539816339744795
1 0 4 0 0 1 0 -1 0 0 0 -0 1 
3 0 3.8500000000000001 0 0 1 0 0 -0 1 1 0 -0 1.45
0.78539816339744795
2 0 4 0 0 1 0 -1 0 0 0 -0 1 1.3
Triangulations 0

TShapes 36
Ve
1e-07
2 0 0
0 0

0101101
*
Ed
 1e-07 1 1 0
1  1 0 3.14159265358979 9.42477796076938
2  1 2 0 3.14159265358979 9.42477796076938
4 C0 1 0 2 0
0

0101100
+36 0 -36 0 *
Wi

0101100
-35 0 *
Ve
1e-07
1.95943487863577e-16 9.94170024082308e-14 -1.6
0 0

0101101
*
Ed
 1e-07 1 1 0
1  2 0 0 6.28318530717959
2  2 3 0 0 6.28318530717959
4 C0 1 0 3 0
0

0101100
+33 0 -33 0 *
Wi

0101100
-32 0 *
Fa
0  1e-07 1 0

0111000
-34 0 -31 0 *
Ve
1e-07
2 4 0
0 0

0101101
*
Ed
 1e-07 1 1 0
1  3 0 3.14159265358979 9.42477796076938
2  3 2 0 3.14159265358979 9.42477796076938
4 C0 2 0 4 0
0

0101100
+29 0 -29 0 *
Ed
 1e-07 1 1 0
1  4 0 -4 0
3  4 5CN 2 0 -4 0
0

0101000
+29 0 -36 0 *
Wi

0101100
+28 0 +27 0 +35 0 -27 0 *
Fa
0  1e-07 2 0

0111000
+26 0 *
Wi

0101100
-28 0 *
Ve
1e-07
-1.95943487863577e-16 4 -1.6
0 0

0101101
*
Ed
 1e-07 1 1 0
1  5 0 0 6.28318530717959
2  6 5 0 0 6.28318530717959
4 C0 4 0 5 0
0

0101100
+23 0 -23 0 *
Wi

0101100
-22 0 *
Fa
0  1e-07 4 0

0111000
+24 0 +21 0 *
Ve
1e-07
1.3 3.7 -1.59204083889156e-16
0 0

0101101
*
Ve
1e-07
-1.59204083889156e-16 3.7 -1.3
0 0

0101101
*
Ed
 1e-07 1 1 0
1  6 0 3.14159265329184 4.71238898008674
2  7 5 0 3.14159265329184 4.71238898008674
2  8 6 0 3.14159265329184 4.71238898008674
4 C0 5 0 6 0
0

0101000
+19 0 -18 0 *
Ed
 1e-07 1 1 0
1  7 0 -0.212132034355964 0.212132034355964
3  9 10CN 5 0 -0.212132034355964 0.212132034355964
0

0101000
+18 0 -23 0 *
Ed
 1e-07 1 1 0
1  8 0 4.71238898008674 9.42477796047143
2  11 5 0 4.71238898008674 9.42477796047143
2  12 6 0 4.71238898008674 9.42477796047143
4 C0 5 0 6 0
0

0101000
+18 0 -19 0 *
Wi

0101100
+17 0 +16 0 -22 0 -16 0 +15 0 *
Fa
0  1e-07 5 0

0111000
+14 0 *
Ve
1e-07
1.3 0.3000000000001 -1.59204083889156e-16
0 0

0101101
*
Ed
 1e-07 1 1 0
1  9 0 -3.6999999999999 -0.3
3  13 14CN 6 0 -3.6999999999999 -0.3
0

0101000
+12 0 -19 0 *
Ve
1e-07
1.59204083889156e-16 0.3000000000001 -1.3
0 0

0101101
*
Ed
 1e-07 1 1 0
1  10 0 0 1.5707963267949
2  15 6 0 0 1.5707963267949
2  16 3 0 0 1.5707963267949
4 C0 6 0 3 0
0

0101000
+10 0 -12 0 *
Ed
 1e-07 1 1 0
1  11 0 1.5707963267949 6.28318530717959
2  17 6 0 1.5707963267949 6.28318530717959
2  18 3 0 1.5707963267949 6.28318530717959
4 C0 6 0 3 0
0

0101000
+12 0 -10 0 *
Wi

0101100
+11 0 -15 0 -17 0 -11 0 -9 0 -8 0 *
Fa
0  1e-07 6 0

0111000
+7 0 *
Ed
 1e-07 1 1 0
1  12 0 -0.212132034355964 0.212132034355965
3  19 20CN 3 0 -0.212132034355964 0.212132034355965
0

0101000
+10 0 -33 0 *
Wi

0101100
+5 0 -32 0 -5 0 +9 0 +8 0 *
Fa
0  1e-07 3 0

0111000
+4 0 *
Sh

0101100
-30 0 +25 0 +20 0 -13 0 -6 0 -3 0 *
So

0100000
+2 0 *

+1 6 