DBRep_DrawableShape

CASCADE Topology V3, (c) Open Cascade
Locations 5
1
              1 2.67284658365876e-20 -6.7762635780344e-21 -2.22044604925031e-16 
-2.67284658365876e-20               1 2.74413351705407e-25               0 
6.7762635780344e-21 -2.74413351705407e-25               1               0 
1
0.656059028848122 -0.754709580226321 -1.3471070811532e-05  41.20308897656 
0.754709580067221 0.656059028986425 -1.54966942786023e-05 -57.1454452941401 
2.05333212699206e-05 3.54895548937098e-15 0.999999999789192  44.27450304174 
1
              1 1.01523055504476e-30 7.88860905221012e-31 -2.2354703914651e-05 
-1.01523055504476e-30               1 2.46519032881566e-32 -1.4281908988778e-11 
-7.88860905221012e-31 -2.46519032881566e-32               1 1.77635683940025e-14 
1
             -1 5.49560397189452e-15 6.60506055373544e-15 29.0552857568237 
5.49560397189452e-15               1 -2.04569717210349e-16            25.8 
-6.60506055373544e-15 -2.04569717210313e-16              -1 54.1216971407633 
2  1 1 2 1 3 1 4 1 0
Curve2ds 32
1 6.3068419220647263 1.5707963267948997 -1 0 
1 -3.1415926535897931 6.2831853071794947 0 -1 
1 3.1415926535897931 6.2831853071794947 0 -1 
1 6.2831853071798864 0 -1 0 
1 9.4011213453850626 3.6999999999999993 -1 0 
1 6.2831853071798855 0 -1 0 
1 3.1179360382054764 3.6999999999999993 -1 0 
1 3.1415926535898033 4.7123889803846852 -1 0 
1 -3.1415926535897931 6.2831853071796999 0 -1 
1 3.1415926535897931 6.2831853071796999 0 -1 
1 0.026300108456034366 3.1415926535897931 -1 -2.8036884024020629e-16 
1 9.4247779607693793 -3.6999999999999993 -1 0 
1 6.3094854156356455 3.1415926535897913 -1 2.8510273331713145e-16 
1 9.4247779607693793 -3.6999999999999993 -1 0 
1 9.4247779607693793 0 0 1 
1 3.1415926535897931 0 0 1 
1 3.1415926535897931 -0.30000000000000071 1 0 
1 -0.037360767459443611 3.1415926535897931 1 -1.4305929007244813e-16 
1 3.1415926535897931 -0.30000000000000071 1 0 
1 6.2458245397201297 3.1415926535897922 1 1.3969667089475189e-16 
1 3.1415926535897749 6.2831853071795862 1.6962958301140473e-15 -1 
1 9.4247779607693616 6.2831853071795862 1.6962958301140473e-15 -1 
1 3.1042318861303366 1.5707963267948892 1 0 
1 3.1415926535897931 4.7123889803846986 1 0 
1 -1.7763568394002505e-15 6.2831853071795862 1 0 
1 -6.2495797687180517 0.30000000000000071 1 0 
1 3.1415926535897869 6.2831853071795862 -2.8271597168566448e-16 -1 
1 9.4247779607693722 6.2831853071795862 -2.8271597168566448e-16 -1 
1 6.2831853071795871 6.2831853071795862 1 0 
1 -6.2495797687180499 0.30000000000000071 1 0 
1 -3.1415926535897931 0 0 -1 
1 3.1415926535897931 0 0 -1 
Curves 18
2 25.420000000000002 68.299999999999997 -24.550000000000001 0 0 1 -1 -4.9947725167334799e-10 0 4.9947725167334799e-10 -1 0 6.2000000000000002
2 31.6182652110069 68.446657335384103 -24.25 0.023654408932920291 -0.99972019532368883 0 0.99972019532368883 0.023654408932920291 0 -0 0 1 0.29999999999999999
2 25.420000000000002 68.299999999999997 -24.25 0 0 1 -0.99972019532369583 -0.023654408932619692 0 0.023654408932619692 -0.99972019532369583 0 6.5
2 25.420000000000002 68.299999999999997 -24.25 0 0 1 -0.99972019532369583 -0.023654408932619692 0 0.023654408932619692 -0.99972019532369583 0 6.5
2 25.420000000000002 68.299999999999997 -24.550000000000001 0 0 -1 -0.99965417208226326 0.026297076615563606 0 0.026297076615563606 0.99965417208226326 0 1.3999999999999999
2 24.020484159084798 68.336815907261794 -24.25 -0.02629707661555631 -0.99965417208226348 0 -0.99965417208226348 0.02629707661555631 0 -0 0 -1 0.29999999999999999
2 25.420000000000002 68.299999999999997 -24.25 0 0 -1 1 0 0 0 -1 0 1.1000000000000001
2 25.420000000000002 68.299999999999997 -24.25 0 0 -1 1 0 0 0 -1 0 1.1000000000000001
1 26.52 68.299999999999997 -20.550000000000001 0 0 1 
2 25.420000000000002 68.299999999999997 -20.850000000000001 0 0 1 1 0 -0 -0 1 0 1.1000000000000001
2 25.420000000000002 68.299999999999997 -20.850000000000001 0 0 1 1 0 -0 -0 1 0 1.1000000000000001
2 24.020976965214199 68.247707092846298 -20.850000000000001 0.037352076538375308 -0.99930216770417912 0 -0.99930216770417912 -0.037352076538375308 0 0 -0 -1 0.29999999999999999
2 25.420000000000002 68.299999999999997 -20.550000000000001 0 0 1 -1 0 0 0 -1 0 1.3999999999999999
2 25.420000000000002 68.299999999999997 -20.550000000000001 0 0 -1 -0.99943538703165691 0.033599213515828903 0 0.033599213515828903 0.99943538703165691 0 6.2000000000000002
2 25.420000000000002 68.299999999999997 -20.850000000000001 0 0 -1 0.99943538703165702 -0.033599213515828501 0 -0.033599213515828501 -0.99943538703165702 -0 6.5
2 19.2235006004037 68.508315123798099 -20.850000000000001 0.033599213515828702 0.99943538703165702 0 -0.99943538703165702 0.033599213515828702 0 0 -0 1 0.29999999999999999
2 25.420000000000002 68.299999999999997 -20.850000000000001 0 0 -1 0.99943538703165702 -0.033599213515828501 0 -0.033599213515828501 -0.99943538703165702 -0 6.5
1 18.920000000000002 68.299999999999997 -20.550000000000001 0 0 1 
Polygon3D 0
PolygonOnTriangulations 0
Surfaces 8
5 25.420000000000002 68.299999999999997 -24.25 0 0 -1 -0.99972019532368883 -0.023654408932919493 -0 -0.023654408932919493 0.99972019532368883 0 6.2000000000000002 0.29999999999999999
1 25.420000000000002 68.299999999999997 -24.550000000000001 0 0 -1 1 0 0 0 -1 0 
2 25.420000000000002 68.299999999999997 -20.550000000000001 0 0 -1 1 0 0 0 -1 0 6.5
5 25.420000000000002 68.299999999999997 -24.25 0 0 1 0.99965417208226348 -0.02629707661555741 0 0.02629707661555741 0.99965417208226348 -0 1.3999999999999999 0.29999999999999999
2 25.420000000000002 68.299999999999997 -20.550000000000001 0 0 1 -1 0 0 0 -1 0 1.1000000000000001
5 25.420000000000002 68.299999999999997 -20.850000000000001 0 0 1 0.99930216770417912 0.037352076538376307 -0 -0.037352076538376307 0.99930216770417912 0 1.3999999999999999 0.29999999999999999
1 25.420000000000002 68.299999999999997 -20.550000000000001 0 0 -1 1 0 0 0 -1 0 
5 25.420000000000002 68.299999999999997 -20.850000000000001 0 0 -1 0.99943538703165702 -0.0335992135158278 0 -0.0335992135158278 -0.99943538703165702 -0 6.2000000000000002 0.29999999999999999
Triangulations 0

TShapes 50
Ve
1e-07
31.6182652110069 68.4466573353841 -24.55
0 0

0101101
*
Ed
 1e-07 1 1 0
1  1 0 3.16524926847493 9.44843457565452
2  1 1 0 3.16524926847493 9.44843457565452
4 G1 1 0 2 0
0

0101100
+50 0 -50 0 *
Ve
1e-07
31.9181812696 68.45375365806 -24.25
0 0

0101101
*
Ed
 1e-07 1 1 0
1  2 0 4.71238898038469 6.28318530717959
3  2 3CN 1 0 4.71238898038469 6.28318530717959
0

0101000
+50 0 -48 0 *
Ve
1e-07
18.92 68.3 -24.25
0 0

0101101
*
Ed
 1e-07 1 1 0
1  3 0 6.25952869179527 9.42477796076938
2  4 1 0 6.25952869179527 9.42477796076938
2  5 3 0 6.25952869179527 9.42477796076938
4 G1 1 0 3 0
0

0101000
+46 0 -48 0 *
Ed
 1e-07 1 1 0
1  4 0 3.14159265358979 6.25952869179527
2  6 1 0 3.14159265358979 6.25952869179527
2  7 3 0 3.14159265358979 6.25952869179527
4 G1 1 0 3 0
0

0101000
+48 0 -46 0 *
Wi

0101100
+49 0 +47 0 -45 0 -44 0 -47 0 *
Fa
0  1e-07 1 0

0111000
+43 0 *
Wi

0101100
-49 0 *
Ve
1e-07
24.0204841590848 68.3368159072618 -24.55
0 0

0101101
*
Ed
 1e-07 1 1 0
1  5 0 0 6.28318530717959
2  8 4 0 0 6.28318530717959
4 G1 2 0 4 0
0

0101100
+40 0 -40 0 *
Wi

0101100
-39 0 *
Fa
0  1e-07 2 0

0111000
+41 0 +38 0 *
Ve
1e-07
24.3203804107095 68.3289267842771 -24.25
0 0

0101101
*
Ed
 1e-07 1 1 0
1  6 0 1.5707963267949 3.14159265358979
3  9 10CN 4 0 1.5707963267949 3.14159265358979
0

0101000
+40 0 -36 0 *
Ve
1e-07
26.52 68.3 -24.25
0 0

0101101
*
Ed
 1e-07 1 1 0
1  7 0 0 3.16789276204583
2  11 4 0 0 3.16789276204583
2  12 5 0 0 3.16789276204583
4 G1 4 0 5 0
0

0101000
+34 0 -36 0 *
Ed
 1e-07 1 1 0
1  8 0 3.16789276204583 6.28318530717959
2  13 4 0 3.16789276204583 6.28318530717959
2  14 5 0 3.16789276204583 6.28318530717959
4 G1 4 0 5 0
0

0101000
+36 0 -34 0 *
Wi

0101100
+39 0 +35 0 -33 0 -32 0 -35 0 *
Fa
0  1e-07 4 0

0111000
+31 0 *
Ve
1e-07
26.52 68.3 -20.85
0 0

0101101
*
Ed
 1e-07 1 1 0
1  9 0 -3.7 -0.300000000000001
3  15 16CN 5 0 -3.7 -0.300000000000001
0

0101000
+34 0 -29 0 *
Ve
1e-07
24.3207676155254 68.2589127158078 -20.85
0 0

0101101
*
Ed
 1e-07 1 1 0
1  10 0 3.17895342104924 6.28318530717959
2  17 5 0 3.17895342104924 6.28318530717959
2  18 6 0 3.17895342104924 6.28318530717959
4 G1 5 0 6 0
0

0101000
+27 0 -29 0 *
Ed
 1e-07 1 1 0
1  11 0 0 3.17895342104924
2  19 5 0 0 3.17895342104924
2  20 6 0 0 3.17895342104924
4 G1 5 0 6 0
0

0101000
+29 0 -27 0 *
Wi

0101100
+28 0 -26 0 -25 0 -28 0 -32 0 -33 0 *
Fa
0  1e-07 5 0

0111000
+24 0 *
Ve
1e-07
24.0209769652142 68.2477070928463 -20.55
0 0

0101101
*
Ed
 1e-07 1 1 0
1  12 0 3.14159265358979 4.71238898038469
3  21 22CN 6 0 3.14159265358979 4.71238898038469
0

0101000
+27 0 -22 0 *
Ed
 1e-07 1 1 0
1  13 0 0.0373607674594366 6.32054607463902
2  23 6 0 0.0373607674594366 6.32054607463902
4 G1 6 0 7 0
0

0101100
+22 0 -22 0 *
Wi

0101100
-25 0 -26 0 +21 0 +20 0 -21 0 *
Fa
0  1e-07 6 0

0111000
+19 0 *
Ve
1e-07
19.2235006004037 68.5083151237981 -20.55
0 0

0101101
*
Ed
 1e-07 1 1 0
1  14 0 0 6.28318530717959
2  24 8 0 0 6.28318530717959
4 G1 7 0 8 0
0

0101100
+17 0 -17 0 *
Wi

0101100
-16 0 *
Wi

0101100
-20 0 *
Fa
0  1e-07 7 0

0111000
-15 0 -14 0 *
Ve
1e-07
18.92366998429 68.51839488785 -20.85
0 0

0101101
*
Ve
1e-07
18.92 68.3 -20.85
0 0

0101101
*
Ed
 1e-07 1 1 0
1  15 0 3.14159265358979 9.39117242230784
2  25 8 0 3.14159265358979 9.39117242230784
2  26 3 0 3.14159265358979 9.39117242230784
4 G1 8 0 3 0
0

0101000
+12 0 -11 0 *
Ed
 1e-07 1 1 0
1  16 0 0 1.5707963267949
3  27 28CN 8 0 0 1.5707963267949
0

0101000
+12 0 -17 0 *
Ed
 1e-07 1 1 0
1  17 0 3.10798711512826 3.14159265358979
2  29 8 0 3.10798711512826 3.14159265358979
2  30 3 0 3.10798711512826 3.14159265358979
4 G1 8 0 3 0
0

0101000
+11 0 -12 0 *
Wi

0101100
-10 0 +9 0 +16 0 -9 0 -8 0 *
Fa
0  1e-07 8 0

0111000
+7 0 *
Ed
 1e-07 1 1 0
1  18 0 -3.7 -0.300000000000001
3  31 32CN 3 0 -3.7 -0.300000000000001
0

0101000
+46 0 -11 0 *
Wi

0101100
+44 0 +5 0 +8 0 +10 0 -5 0 +45 0 *
Fa
0  1e-07 3 0

0111000
+4 0 *
Sh

0101100
+42 0 +37 0 +30 0 -23 0 +18 0 -13 0 +6 0 +3 0 *
So

0100000
+2 0 *

+1 5 