DBRep_DrawableShape

CASCADE Topology V3, (c) Open Cascade
Locations 0
Curve2ds 18
1 0 82 1 0 
2 0 0 1 0 -0 1 12
1 6.2831853071795862 -0 0 1 
1 0 -0 0 1 
1 0 0 1 0 
2 0 0 1 0 -0 1 12
1 0 22.21594247381821 1 0 
2 0 0 1 0 -0 1 6.0899999999999999
2 0 0 1 0 -0 1 6.0899999999999999
2 0 0 1 0 -0 1 3
1 0 1 1 0 
1 6.2831853071795862 -0 0 1 
1 0 -0 0 1 
1 0 0 1 0 
2 0 0 1 0 -0 1 3
1 0 61 1 0 
1 6.2831853071795862 -0 0 1 
1 0 -0 0 1 
Curves 8
2 0 0 82 0 0 1 1 0 -0 -0 1 0 12
1 12 -2.9391523179536475e-15 0 0 0 1 
2 0 0 0 0 0 1 1 0 -0 -0 1 0 12
2 0 0 82 0 0 1 1 0 -0 -0 1 0 6.0899999999999999
2 0 0 0 0 0 1 1 0 -0 -0 1 0 3
1 3 -7.3478807948841188e-16 60 0.13908930506286676 -3.4067054448173904e-17 0.99027984187154328 
2 0 0 60 0 0 1 1 0 -0 -0 1 0 3
1 3 -7.3478807948841188e-16 -1 0 0 1 
Polygon3D 0
PolygonOnTriangulations 0
Surfaces 7
2 0 0 0 0 0 1 1 0 -0 -0 1 0 12
1 0 0 82 0 0 1 1 0 -0 -0 1 0 
1 0 0 0 0 0 1 1 0 -0 -0 1 0 
3 0 0 60 0 0 1 1 0 -0 -0 1 0 3
0.13954172125515163
1 0 0 82 0 0 1 1 0 -0 -0 1 0 
2 0 0 -1 0 0 1 1 0 -0 -0 1 0 3
1 0 0 60 0 0 1 1 0 -0 -0 1 0 
Triangulations 0

TShapes 28
Ve
1e-07
12 -2.93915231795365e-15 82
0 0

0101101
*
Ed
 1e-07 1 1 0
1  1 0 0 6.28318530717959
2  1 1 0 0 6.28318530717959
2  2 2 0 0 6.28318530717959
0

0101000
+28 0 -28 0 *
Ve
1e-07
12 -2.93915231795365e-15 0
0 0

0101101
*
Ed
 1e-07 1 1 0
1  2 0 0 82
3  3 4CN 1 0 0 82
0

0101000
-28 0 +26 0 *
Ed
 1e-07 1 1 0
1  3 0 0 6.28318530717959
2  5 1 0 0 6.28318530717959
2  6 3 0 0 6.28318530717959
0

0101000
+26 0 -26 0 *
Wi

0101100
-27 0 +25 0 +24 0 -25 0 *
Fa
0  1e-07 1 0

0111000
+23 0 *
Wi

0101100
+27 0 *
Ve
1e-07
6.09 -1.49161980136148e-15 82
0 0

0101101
*
Ed
 1e-07 1 1 0
1  4 0 0 6.28318530717959
2  7 4 0 0 6.28318530717959
2  8 5 0 0 6.28318530717959
2  9 2 0 0 6.28318530717959
0

0101000
+20 0 -20 0 *
Wi

0101100
-19 0 *
Fa
0  1e-07 2 0

0101000
+21 0 +18 0 *
Wi

0101100
+24 0 *
Ve
1.00000000734788e-07
3 -7.34788079488412e-16 0
0 0

0101101
*
Ed
 1e-07 1 1 0
1  5 0 0 6.28318530717959
2  10 3 0 0 6.28318530717959
2  11 6 0 0 6.28318530717959
0

0101100
+15 0 -15 0 *
Wi

0101100
-14 0 *
Fa
0  1e-07 3 0

0101000
+16 0 +13 0 *
Ve
1.00000002589463e-07
3 -7.34788079488412e-16 60
0 0

0101101
*
Ed
 1e-07 1 1 0
1  6 0 0 22.2159424738182
3  12 13CN 4 0 0 22.2159424738182
0

0101000
-20 0 +11 0 *
Ed
 1.00000002589463e-07 1 1 0
1  7 0 0 6.28318530717959
2  14 4 0 0 6.28318530717959
2  15 7 0 0 6.28318530717959
2  16 6 0 0 6.28318530717959
0

0101000
+11 0 -11 0 *
Wi

0101100
-19 0 +10 0 +9 0 -10 0 *
Fa
0  1e-07 4 0

0111000
+8 0 *
Ed
 1e-07 1 1 0
1  8 0 1 61
3  17 18CN 6 0 1 61
0

0101000
+15 0 -11 0 *
Wi

0101100
+14 0 -6 0 -9 0 +6 0 *
Fa
0  1e-07 6 0

0101000
+5 0 *
Sh

0101100
+22 0 +17 0 -12 0 -7 0 -4 0 *
So

0100000
+3 0 *
Co

1100000
+2 0 *

+1 0 